<?xml version="1.0" standalone="no"?>
<!DOCTYPE svg PUBLIC "-//W3C//DTD SVG 20010904//EN"
 "http://www.w3.org/TR/2001/REC-SVG-20010904/DTD/svg10.dtd">
<svg version="1.0" xmlns="http://www.w3.org/2000/svg"
 width="162.000000pt" height="162.000000pt" viewBox="0 0 162.000000 162.000000"
 preserveAspectRatio="xMidYMid meet">
<metadata>
Created by potrace 1.11, written by Peter Selinger 2001-2013
</metadata>
<g transform="translate(0.000000,162.000000) scale(0.100000,-0.100000)"
fill="#000000" stroke="none">
<path d="M157 1574 c-15 -14 -29 -42 -33 -62 -16 -87 19 -307 92 -568 42 -149
40 -129 23 -221 -23 -131 10 -266 93 -374 34 -44 35 -47 22 -79 -31 -72 -14
-135 48 -180 38 -28 48 -31 93 -26 28 3 57 6 65 7 8 0 33 -6 55 -15 62 -24
312 -22 385 4 37 12 60 15 72 9 27 -15 76 -10 117 10 69 36 94 103 66 181 -15
42 -15 45 5 70 39 48 80 125 96 178 19 64 21 180 5 249 -11 45 -10 58 8 114
52 158 121 491 121 585 0 91 -42 144 -115 144 -78 0 -186 -92 -305 -259 l-65
-91 -60 8 c-78 9 -204 9 -282 -1 l-61 -8 -58 83 c-69 99 -195 228 -246 251
-55 26 -110 22 -141 -9z"/>
</g>
</svg>
